<svg aria-hidden="true" style="width:0;height:0;position:absolute;overflow:hidden" xmlns="http://www.w3.org/2000/svg"><defs><symbol id="icon-heart_w" viewBox="0 0 32 32"><path fill="#f8f8f8" style="fill:var(--color1,#f8f8f8)" d="M15.991 6.848C13.325 3.731 8.88 2.893 5.54 5.747s-3.81 7.625-1.187 11c2.181 2.806 8.781 8.725 10.944 10.641.242.214.363.321.504.364a.668.668 0 0 0 .381 0c.141-.042.262-.149.504-.364 2.163-1.916 8.763-7.834 10.944-10.641 2.623-3.375 2.21-8.177-1.187-11.001s-7.785-2.015-10.451 1.101z"/></symbol><symbol id="icon-chevron-down" viewBox="0 0 32 32"><path stroke-linejoin="round" stroke-linecap="round" stroke-width="3.556" d="m8 12 8 8 8-8"/></symbol><symbol id="icon-heart" viewBox="0 0 32 32"><path fill="none" opacity=".5" stroke="#f8f8f8" style="stroke:var(--color1,#f8f8f8)" stroke-linejoin="round" stroke-linecap="round" stroke-width="2.909" d="M15.991 6.848C13.325 3.731 8.88 2.893 5.54 5.747s-3.81 7.625-1.187 11c2.181 2.806 8.781 8.725 10.944 10.641.242.214.363.321.504.364a.668.668 0 0 0 .381 0c.141-.042.262-.149.504-.364 2.163-1.916 8.763-7.834 10.944-10.641 2.623-3.375 2.21-8.177-1.187-11.001s-7.786-2.015-10.451 1.101z"/></symbol><symbol id="icon-search" viewBox="0 0 32 32"><path d="M28.947 27.054 24 22.147a11.999 11.999 0 0 0-1.353-16.445 12 12 0 1 0-.5 18.298l4.907 4.907a1.334 1.334 0 0 0 1.894 0 1.336 1.336 0 0 0 0-1.854zm-14.28-3.053a9.33 9.33 0 0 1-8.623-5.762A9.339 9.339 0 0 1 8.067 8.067a9.331 9.331 0 0 1 10.172-2.023 9.336 9.336 0 0 1 5.762 8.623 9.333 9.333 0 0 1-9.334 9.334z"/></symbol><symbol id="icon-searh-green" viewBox="0 0 32 32"><path fill="#9bb537" style="fill:var(--color2,#9bb537)" d="M30.565 28.436 25 22.916a13.5 13.5 0 1 0-2.086 2.086l5.52 5.52a1.483 1.483 0 0 0 1.065.443 1.504 1.504 0 0 0 1.065-.443 1.503 1.503 0 0 0 0-2.085zM14.5 25.001a10.494 10.494 0 0 1-9.7-6.482A10.5 10.5 0 1 1 14.501 25z"/></symbol><symbol id="icon-xwite" viewBox="0 0 32 32"><path fill="none" stroke="#fff" style="stroke:var(--color2,#fff)" stroke-linejoin="round" stroke-linecap="round" stroke-width="3.556" d="M24 8 8 24M8 8l16 16"/></symbol><symbol id="icon-xdark" viewBox="0 0 32 32"><path stroke-linejoin="round" stroke-linecap="round" stroke-width="3.556" d="M24 8 8 24M8 8l16 16"/></symbol></defs></svg>