<svg xmlns="http://www.w3.org/2000/svg" aria-hidden="true" style="width:0;height:0;position:absolute;overflow:hidden"><defs><symbol id="icon-facebook-1" viewBox="0 0 32 32"><path d="M21.329 5.313h2.921V.225C23.746.156 22.013 0 19.994 0c-4.212 0-7.097 2.649-7.097 7.519V12H8.249v5.688h4.648V32h5.699V17.689h4.46l.708-5.688h-5.169V8.082c.001-1.644.444-2.769 2.735-2.769z" style="fill:var(--color1,#f4f4fd)"/></symbol><symbol id="icon-instagram-2" viewBox="0 0 32 32"><path d="M31.969 9.408c-.075-1.7-.35-2.869-.744-3.882a7.793 7.793 0 0 0-1.851-2.838A7.867 7.867 0 0 0 26.542.844C25.523.45 24.361.175 22.66.1 20.947.019 20.403 0 16.059 0s-4.888.019-6.595.094c-1.7.075-2.869.35-3.882.744a7.803 7.803 0 0 0-2.838 1.85A7.867 7.867 0 0 0 .9 5.52C.506 6.539.231 7.702.156 9.402c-.081 1.713-.1 2.257-.1 6.601s.019 4.888.094 6.595c.075 1.7.35 2.869.744 3.882a7.895 7.895 0 0 0 1.85 2.838 7.867 7.867 0 0 0 2.832 1.844c1.019.394 2.182.669 3.882.744 1.706.075 2.25.094 6.595.094s4.888-.019 6.595-.094c1.7-.075 2.869-.35 3.882-.744a8.181 8.181 0 0 0 4.682-4.682c.394-1.019.669-2.182.744-3.882.075-1.707.094-2.25.094-6.595s-.006-4.888-.081-6.595zm-2.882 13.065c-.069 1.563-.331 2.407-.55 2.969a5.31 5.31 0 0 1-3.038 3.038c-.563.219-1.413.481-2.969.55-1.688.075-2.194.094-6.464.094s-4.782-.019-6.464-.094c-1.563-.069-2.407-.331-2.969-.55a4.926 4.926 0 0 1-1.838-1.194 4.974 4.974 0 0 1-1.194-1.838c-.219-.563-.481-1.413-.55-2.969-.075-1.688-.094-2.194-.094-6.464s.019-4.782.094-6.464c.069-1.563.331-2.407.55-2.969a4.868 4.868 0 0 1 1.2-1.838A4.974 4.974 0 0 1 6.639 3.55c.563-.219 1.413-.481 2.969-.55 1.688-.075 2.194-.094 6.464-.094 4.276 0 4.782.019 6.464.094 1.563.069 2.407.331 2.969.55a4.914 4.914 0 0 1 1.838 1.194 4.974 4.974 0 0 1 1.194 1.838c.219.563.481 1.413.55 2.969.075 1.688.094 2.194.094 6.464s-.019 4.77-.094 6.458z" style="fill:var(--color1,#f4f4fd)"/><path d="M16.059 7.783c-4.538 0-8.22 3.682-8.22 8.22s3.682 8.22 8.22 8.22c4.539 0 8.22-3.682 8.22-8.22s-3.682-8.22-8.22-8.22zm0 13.552a5.333 5.333 0 0 1 0-10.664 5.332 5.332 0 0 1 0 10.664zM26.524 7.458a1.919 1.919 0 1 1-3.838 0 1.919 1.919 0 0 1 3.838 0z" style="fill:var(--color1,#f4f4fd)"/></symbol><symbol id="icon-linkedin-1" viewBox="0 0 32 32"><path d="M31.992 32v-.001H32V20.263c0-5.741-1.236-10.164-7.948-10.164-3.227 0-5.392 1.771-6.276 3.449h-.093v-2.913h-6.364v21.364h6.627V21.42c0-2.785.528-5.479 3.977-5.479 3.399 0 3.449 3.179 3.449 5.657v10.401h6.62zM.528 10.636h6.635V32H.528V10.636zM3.843 0C1.722 0 0 1.721 0 3.843s1.721 3.879 3.843 3.879c2.121 0 3.843-1.757 3.843-3.879A3.846 3.846 0 0 0 3.843 0z" style="fill:var(--color1,#f4f4fd)"/></symbol><symbol id="icon-twitter-1" viewBox="0 0 32 32"><path d="M32 6.078c-1.19.522-2.458.868-3.78 1.036a6.523 6.523 0 0 0 2.886-3.626 13.11 13.11 0 0 1-4.16 1.588A6.574 6.574 0 0 0 22.154 3c-3.632 0-6.556 2.948-6.556 6.562 0 .52.044 1.02.152 1.496-5.454-.266-10.28-2.88-13.522-6.862a6.605 6.605 0 0 0-.898 3.316 6.57 6.57 0 0 0 2.914 5.452 6.479 6.479 0 0 1-2.964-.808v.072c0 3.188 2.274 5.836 5.256 6.446a6.548 6.548 0 0 1-1.72.216 5.8 5.8 0 0 1-1.242-.112c.85 2.598 3.262 4.508 6.13 4.57a13.182 13.182 0 0 1-8.134 2.798c-.538 0-1.054-.024-1.57-.09A18.469 18.469 0 0 0 10.064 29c12.072 0 18.672-10 18.672-18.668 0-.29-.01-.57-.024-.848A13.087 13.087 0 0 0 32 6.078z" style="fill:var(--color1,#f4f4fd)"/></symbol><symbol id="icon-close" viewBox="0 0 32 32"><path stroke-linecap="round" stroke-linejoin="round" stroke-width="2" d="M24 8 8 24M8 8l16 16"/></symbol><symbol id="icon-shopping" viewBox="0 0 32 32"><path stroke-linecap="round" stroke-linejoin="round" stroke-width="2.667" d="M12 29.333a1.333 1.333 0 1 0 0-2.667 1.333 1.333 0 0 0 0 2.667zm14.667 0a1.333 1.333 0 1 0 0-2.667 1.333 1.333 0 0 0 0 2.667z"/><path stroke-linecap="round" stroke-linejoin="round" stroke-width="2.4" d="M1.333 1.333h5.333l3.573 17.853a2.671 2.671 0 0 0 2.666 2.147h12.96a2.667 2.667 0 0 0 2.666-2.147l2.133-11.187H7.997"/></symbol><symbol id="icon-burger-menu" viewBox="0 0 31 32"><path stroke-linecap="round" stroke-linejoin="round" stroke-width="1.939" d="M27.151 13.414H3.878m23.273-5.172H3.878m23.273 10.344H3.878m23.273 5.172H3.878"/></symbol><symbol id="icon-Favorites" viewBox="0 0 163 32"><path d="M.182 28.8V.873h16.745v3H3.563v9.436h12.109v3H3.563V28.8H.181zm28.265.491c-1.327 0-2.532-.25-3.614-.75-1.082-.509-1.941-1.241-2.577-2.195-.636-.964-.955-2.127-.955-3.491 0-1.2.236-2.173.709-2.918.473-.755 1.105-1.345 1.895-1.773s1.664-.745 2.618-.955a31.854 31.854 0 0 1 2.905-.518c1.273-.164 2.305-.286 3.095-.368.8-.091 1.382-.241 1.746-.45.372-.209.559-.573.559-1.091v-.109c0-1.345-.368-2.391-1.105-3.136-.727-.745-1.832-1.118-3.314-1.118-1.536 0-2.741.336-3.614 1.009s-1.486 1.391-1.841 2.155l-3.055-1.091c.545-1.273 1.273-2.264 2.182-2.973a8.18 8.18 0 0 1 3-1.5 12.453 12.453 0 0 1 3.218-.436c.673 0 1.445.082 2.318.245a7.423 7.423 0 0 1 2.55.968c.827.491 1.514 1.232 2.059 2.223s.818 2.318.818 3.982v13.8h-3.218v-2.836h-.164c-.218.455-.582.941-1.091 1.459s-1.186.959-2.032 1.323c-.845.364-1.877.545-3.095.545zm.491-2.891c1.273 0 2.345-.25 3.218-.75.882-.5 1.545-1.145 1.991-1.936a4.93 4.93 0 0 0 .682-2.495v-2.945c-.136.164-.436.314-.9.45-.454.127-.982.241-1.582.341-.591.091-1.168.173-1.732.245-.555.064-1.005.118-1.35.164-.836.109-1.618.286-2.345.532-.718.236-1.3.595-1.745 1.077-.436.473-.655 1.118-.655 1.936 0 1.118.414 1.964 1.241 2.536.836.564 1.895.845 3.177.845zm31.36-18.545L52.553 28.8H49.28L41.534 7.855h3.491l5.782 16.691h.218l5.782-16.691h3.491zm12.007 21.381c-1.891 0-3.55-.45-4.977-1.35-1.418-.9-2.527-2.159-3.327-3.777-.791-1.618-1.186-3.509-1.186-5.673 0-2.182.395-4.086 1.186-5.714.8-1.627 1.909-2.891 3.327-3.791 1.427-.9 3.086-1.35 4.977-1.35s3.545.45 4.964 1.35c1.427.9 2.536 2.164 3.327 3.791.8 1.627 1.2 3.532 1.2 5.714 0 2.164-.4 4.055-1.2 5.673-.791 1.618-1.9 2.877-3.327 3.777-1.418.9-3.073 1.35-4.964 1.35zm0-2.891c1.436 0 2.618-.368 3.545-1.105s1.614-1.705 2.059-2.905.668-2.5.668-3.9-.223-2.705-.668-3.914-1.132-2.186-2.059-2.932c-.927-.745-2.109-1.118-3.545-1.118s-2.618.373-3.546 1.118c-.927.745-1.613 1.723-2.059 2.932s-.668 2.514-.668 3.914.223 2.7.668 3.9c.445 1.2 1.132 2.168 2.059 2.905s2.109 1.105 3.546 1.105zM86.708 28.8V7.855h3.109v3.164h.218c.382-1.036 1.073-1.877 2.073-2.523s2.127-.968 3.382-.968c.236 0 .532.005.886.014s.623.023.805.041v3.273a9.864 9.864 0 0 0-.75-.123 7.35 7.35 0 0 0-1.214-.095c-1.018 0-1.927.214-2.727.641-.791.418-1.418 1-1.882 1.745-.455.736-.682 1.577-.682 2.523v13.255h-3.218zm14.288 0V7.855h3.218V28.8h-3.218zm1.636-24.436a2.291 2.291 0 0 1-1.623-.641c-.445-.427-.668-.941-.668-1.541s.223-1.114.668-1.541c.455-.427.996-.641 1.623-.641s1.164.214 1.609.641c.454.427.682.941.682 1.541s-.228 1.114-.682 1.541a2.242 2.242 0 0 1-1.609.641zm16.585 3.491v2.727h-10.854V7.855h10.854zm-7.691-5.019h3.218V22.8c0 .909.132 1.591.396 2.045.273.445.618.745 1.036.9.428.145.877.218 1.35.218.355 0 .645-.018.873-.055l.546-.109.654 2.891a6.418 6.418 0 0 1-.914.245c-.391.091-.886.136-1.486.136-.909 0-1.8-.195-2.673-.586a5.31 5.31 0 0 1-2.155-1.786c-.564-.8-.845-1.809-.845-3.027V2.836zm21.089 26.4c-2.018 0-3.759-.445-5.223-1.336-1.454-.9-2.577-2.155-3.368-3.764-.782-1.618-1.173-3.5-1.173-5.645s.391-4.036 1.173-5.673c.791-1.645 1.891-2.927 3.3-3.845 1.418-.927 3.073-1.391 4.964-1.391 1.091 0 2.168.182 3.232.545s2.032.955 2.905 1.773c.873.809 1.568 1.882 2.086 3.218s.777 2.982.777 4.936v1.364h-16.145v-2.782h12.873c0-1.182-.236-2.236-.709-3.164a5.342 5.342 0 0 0-1.991-2.195c-.855-.536-1.864-.805-3.028-.805-1.282 0-2.391.318-3.327.955-.927.627-1.641 1.445-2.141 2.455s-.75 2.091-.75 3.245v1.855c0 1.582.273 2.923.818 4.023.555 1.091 1.323 1.923 2.305 2.495.982.564 2.123.845 3.423.845.845 0 1.609-.118 2.291-.355a4.906 4.906 0 0 0 1.787-1.091c.5-.491.886-1.1 1.159-1.827l3.109.873a6.885 6.885 0 0 1-1.65 2.782c-.772.791-1.727 1.409-2.863 1.855-1.137.436-2.414.655-3.832.655zm28.404-16.691-2.891.818a5.395 5.395 0 0 0-.804-1.405c-.345-.464-.818-.845-1.418-1.145s-1.368-.45-2.304-.45c-1.282 0-2.35.295-3.205.886-.845.582-1.268 1.323-1.268 2.223 0 .8.291 1.432.873 1.895s1.491.85 2.727 1.159l3.109.764c1.873.455 3.268 1.15 4.187 2.086.918.927 1.377 2.123 1.377 3.586 0 1.2-.346 2.273-1.036 3.218-.682.945-1.636 1.691-2.864 2.236s-2.654.818-4.282.818c-2.136 0-3.904-.464-5.304-1.391s-2.286-2.282-2.659-4.064l3.054-.764c.291 1.127.841 1.973 1.65 2.536.818.564 1.886.845 3.204.845 1.5 0 2.691-.318 3.573-.955.891-.645 1.336-1.418 1.336-2.318 0-.727-.255-1.336-.764-1.827-.509-.5-1.291-.873-2.345-1.118l-3.491-.818c-1.918-.455-3.327-1.159-4.227-2.114-.891-.964-1.337-2.168-1.337-3.614 0-1.182.332-2.227.996-3.136.673-.909 1.587-1.623 2.741-2.141 1.164-.518 2.482-.777 3.955-.777 2.073 0 3.7.455 4.882 1.364 1.191.909 2.036 2.109 2.536 3.6z"/></symbol><symbol id="icon-Home" viewBox="0 0 109 32"><path d="M3.068 28.8V.873h4.214v12.136h13.923V.873h4.227V28.8h-4.227V16.623H7.282V28.8H3.068zm36.996.423c-1.964 0-3.677-.45-5.141-1.35s-2.6-2.159-3.409-3.777c-.809-1.618-1.214-3.509-1.214-5.673 0-2.173.405-4.073 1.214-5.7s1.946-2.891 3.409-3.791c1.463-.9 3.177-1.35 5.141-1.35s3.677.45 5.141 1.35c1.464.9 2.6 2.164 3.409 3.791s1.213 3.527 1.213 5.7c0 2.164-.404 4.055-1.213 5.673s-1.946 2.877-3.409 3.777-3.177 1.35-5.141 1.35zm.013-3.423c1.273 0 2.327-.336 3.164-1.009s1.454-1.568 1.854-2.686c.409-1.118.614-2.35.614-3.695 0-1.336-.204-2.564-.614-3.682-.4-1.127-1.018-2.032-1.854-2.714s-1.891-1.023-3.164-1.023c-1.282 0-2.345.341-3.191 1.023-.836.682-1.459 1.586-1.868 2.714-.4 1.118-.6 2.345-.6 3.682 0 1.345.2 2.577.6 3.695.409 1.118 1.032 2.014 1.868 2.686.845.673 1.909 1.009 3.191 1.009zm14.302 3V7.855h3.914v3.409h.259c.436-1.155 1.15-2.055 2.141-2.7.991-.655 2.177-.982 3.559-.982 1.4 0 2.573.327 3.518.982.955.655 1.659 1.555 2.114 2.7h.218c.5-1.118 1.295-2.009 2.386-2.673 1.091-.673 2.391-1.009 3.9-1.009 1.9 0 3.45.595 4.65 1.786 1.209 1.191 1.814 2.986 1.814 5.386v14.045h-4.077V15.135c0-1.418-.386-2.445-1.159-3.082s-1.695-.955-2.768-.955c-1.327 0-2.359.409-3.096 1.227-.736.809-1.104 1.85-1.104 3.123v13.35h-4.064V14.875c0-1.136-.355-2.05-1.064-2.741s-1.632-1.036-2.768-1.036c-.772 0-1.486.205-2.141.614-.645.4-1.168.959-1.568 1.677-.391.718-.586 1.55-.586 2.495v12.914H54.38zm42.964.423c-2.063 0-3.841-.441-5.332-1.323-1.482-.891-2.628-2.141-3.436-3.75-.8-1.618-1.2-3.514-1.2-5.686 0-2.145.4-4.036 1.2-5.673.809-1.636 1.936-2.914 3.382-3.832 1.455-.918 3.155-1.377 5.1-1.377 1.182 0 2.327.195 3.436.586s2.105 1.005 2.987 1.841c.882.836 1.577 1.923 2.086 3.259.509 1.327.764 2.941.764 4.841v1.445H89.68v-3.055h12.654c0-1.073-.218-2.023-.654-2.85a4.949 4.949 0 0 0-1.841-1.977c-.782-.482-1.7-.723-2.755-.723-1.146 0-2.146.282-3 .845a5.686 5.686 0 0 0-1.964 2.182 6.306 6.306 0 0 0-.682 2.905v2.386c0 1.4.245 2.591.736 3.573.5.982 1.196 1.732 2.086 2.25.891.509 1.932.764 3.123.764.773 0 1.477-.109 2.114-.327.636-.227 1.187-.564 1.65-1.009s.818-.995 1.064-1.65l3.859.695a6.986 6.986 0 0 1-1.664 2.986c-.791.845-1.786 1.505-2.986 1.977-1.191.464-2.55.695-4.077.695z"/></symbol><symbol id="icon-x" viewBox="0 0 32 32"><path d="M32 3.224 28.776 0 16 12.776 3.224 0 0 3.224 12.776 16 0 28.776 3.224 32 16 19.224 28.776 32 32 28.776 19.224 16 32 3.224z"/></symbol><symbol id="icon-github" viewBox="0 0 32 32"><path d="M16 0C7.165 0 0 7.164 0 16c0 7.069 4.584 13.067 10.943 15.183.799.148 1.057-.348 1.057-.769v-2.979c-4.451.968-5.377-1.888-5.377-1.888-.728-1.849-1.777-2.341-1.777-2.341-1.452-.993.111-.972.111-.972 1.607.112 2.452 1.649 2.452 1.649 1.427 2.445 3.743 1.739 4.656 1.329.143-1.033.557-1.74 1.016-2.139-3.553-.407-7.289-1.779-7.289-7.908 0-1.748.625-3.175 1.648-4.295-.165-.404-.713-2.032.156-4.235 0 0 1.344-.429 4.401 1.64a15.345 15.345 0 0 1 4.004-.539c1.36.007 2.729.184 4.008.539 3.055-2.069 4.396-1.64 4.396-1.64.871 2.204.323 3.832.157 4.235 1.027 1.12 1.647 2.548 1.647 4.295 0 6.145-3.743 7.499-7.305 7.895.573.496 1.097 1.469 1.097 2.963v4.391c0 .425.256.925 1.068.768 6.353-2.119 10.932-8.115 10.932-15.181 0-8.836-7.164-16-16-16z"/></symbol><symbol id="icon-inkedin" viewBox="0 0 32 32"><path d="M25.333 0H6.666A6.668 6.668 0 0 0-.001 6.667v18.667a6.668 6.668 0 0 0 6.667 6.667h18.667A6.666 6.666 0 0 0 32 25.334V6.667A6.667 6.667 0 0 0 25.333 0zM10.667 25.333h-4V10.666h4v14.667zm-2-16.357c-1.288 0-2.333-1.053-2.333-2.352s1.045-2.352 2.333-2.352S11 5.325 11 6.624 9.956 8.976 8.667 8.976zm18 16.357h-4v-7.472c0-4.491-5.333-4.151-5.333 0v7.472h-4V10.666h4v2.353c1.861-3.448 9.333-3.703 9.333 3.301v9.012z"/></symbol><symbol id="icon-arrow-up" viewBox="0 0 48 48"><path d="M44.22 22.62c.49.67.78 1.49.78 2.38 0 2.21-1.79 4-4 4h-4c-1.1 0-2 .9-2 2v12c0 2.21-1.79 4-4 4H17c-2.21 0-4-1.79-4-4V31c0-1.1-.9-2-2-2H7c-2.21 0-4-1.79-4-4 0-.89.29-1.71.78-2.38L20.45 2.47a5.022 5.022 0 0 1 7.1 0l16.67 20.15z"/></symbol><symbol id="icon-heart" viewBox="0 0 34 32"><path fill="#9bb537" style="fill:var(--color1,#9bb537)" d="m17.231 31.705-2.412-2.412C5.859 21.367.001 16.025.001 9.478.001 4.136 4.136.001 9.478.001c2.929 0 5.858 1.378 7.754 3.618 1.895-2.24 4.825-3.618 7.754-3.618 5.342 0 9.477 4.135 9.477 9.477 0 6.548-5.858 11.889-14.818 19.815l-2.412 2.412z"/></symbol><symbol id="icon-x-button" viewBox="0 0 32 32"><path d="M16.003 2.673c7.357 0 13.331 5.973 13.331 13.329 0 7.357-5.973 13.331-13.331 13.331-7.356 0-13.329-5.973-13.329-13.331 0-7.356 5.973-13.329 13.329-13.329zm0 2c-6.253 0-11.329 5.076-11.329 11.329S9.75 27.333 16.003 27.333s11.331-5.077 11.331-11.331S22.257 4.673 16.003 4.673zm0 9.9 3.623-3.624a.999.999 0 1 1 1.416 1.416l-3.623 3.623 3.636 3.637a1 1 0 0 1-1.414 1.416l-3.639-3.637-3.637 3.637a1.001 1.001 0 0 1-1.415-1.416l3.637-3.637-3.629-3.629a.998.998 0 0 1 .708-1.707c.256 0 .513.097.708.292z"/></symbol><symbol id="icon-angle-small-left" viewBox="0 0 34 32"><path d="M18.666 16.947a1.344 1.344 0 0 0 .395-.947 1.331 1.331 0 0 0-.395-.947l-6.12-6.107a1.334 1.334 0 1 1 1.88-1.894l6.12 6.12a4.001 4.001 0 0 1 0 5.654l-6.12 6.12a1.337 1.337 0 0 1-2.172-.434 1.331 1.331 0 0 1 .292-1.46l6.12-6.107z"/></symbol><symbol id="icon-angle-small-left-1" viewBox="0 0 34 32"><path d="M14.934 16.947a1.334 1.334 0 0 1 0-1.894l6.12-6.107a1.334 1.334 0 1 0-1.88-1.894l-6.12 6.12a4.001 4.001 0 0 0 0 5.654l6.12 6.12a1.337 1.337 0 0 0 2.172-.434 1.331 1.331 0 0 0-.292-1.46l-6.12-6.107z"/></symbol><symbol id="icon-right" viewBox="0 0 124 96"><path d="M81.6 50.839a3.996 3.996 0 0 0 .876-4.378 3.98 3.98 0 0 0-.876-1.302l-18.36-18.32a4.011 4.011 0 0 1-1.184-2.84 3.999 3.999 0 0 1 1.184-2.84 4.002 4.002 0 0 1 5.64 0l18.36 18.36a12.001 12.001 0 0 1 0 16.96l-18.36 18.36a4.008 4.008 0 0 1-5.64 0 4.011 4.011 0 0 1-1.184-2.84 3.999 3.999 0 0 1 1.184-2.84l18.36-18.32z"/><path d="M53.6 50.839a3.996 3.996 0 0 0 .876-4.378 3.98 3.98 0 0 0-.876-1.302l-18.36-18.32a4.011 4.011 0 0 1-1.184-2.84 3.999 3.999 0 0 1 1.184-2.84 3.999 3.999 0 0 1 5.64 0l18.36 18.36a12.001 12.001 0 0 1 0 16.96l-18.36 18.36a4.008 4.008 0 0 1-5.64 0 4.011 4.011 0 0 1-1.184-2.84 3.999 3.999 0 0 1 1.184-2.84l18.36-18.32z"/></symbol><symbol id="icon-left" viewBox="0 0 124 96"><path d="M42.4 50.839a3.996 3.996 0 0 1-.876-4.378c.203-.488.5-.93.876-1.302l18.36-18.32a4.011 4.011 0 0 0 1.184-2.84 3.999 3.999 0 0 0-1.184-2.84 4.002 4.002 0 0 0-5.64 0l-18.36 18.36a12 12 0 0 0 0 16.96l18.36 18.36a4.008 4.008 0 0 0 5.64 0 4.011 4.011 0 0 0 1.184-2.84 3.999 3.999 0 0 0-1.184-2.84L42.4 50.839z"/><path d="M70.4 50.839a3.996 3.996 0 0 1-.876-4.378c.203-.488.5-.93.876-1.302l18.36-18.32a4.011 4.011 0 0 0 1.184-2.84 3.999 3.999 0 0 0-1.184-2.84 4.002 4.002 0 0 0-5.64 0l-18.36 18.36a12.001 12.001 0 0 0 0 16.96l18.36 18.36a4.008 4.008 0 0 0 5.64 0 4.011 4.011 0 0 0 1.184-2.84 3.999 3.999 0 0 0-1.184-2.84L70.4 50.839z"/></symbol></defs></svg>