<svg aria-hidden="true" style="width:24px;height:24px;position:absolute;overflow:hidden" xmlns="http://www.w3.org/2000/svg"><defs><symbol id="icon-star" viewBox="0 0 32 32"><path d="M15.41 1.118a.667.667 0 0 1 1.179 0l4.148 7.862a.664.664 0 0 0 .476.346l8.759 1.515a.667.667 0 0 1 .364 1.122l-6.195 6.374a.668.668 0 0 0-.182.559l1.265 8.798a.666.666 0 0 1-.954.693l-7.977-3.922a.667.667 0 0 0-.588 0l-7.977 3.922a.667.667 0 0 1-.954-.693l1.265-8.798a.667.667 0 0 0-.182-.559l-6.195-6.374a.667.667 0 0 1 .364-1.122l8.758-1.515a.664.664 0 0 0 .476-.346l4.148-7.862z"/></symbol></defs></svg><svg aria-hidden="true" style="width:0;height:0;position:absolute;overflow:hidden" xmlns="http://www.w3.org/2000/svg"><defs><symbol id="icon-reviews-1" viewBox="0 0 171 32"><path fill="#eea10c" style="fill:var(--color1,#eea10c)" d="M15.411 1.118a.667.667 0 0 1 1.177-.004l.002.004 4.148 7.862c.096.18.268.31.472.346l.004.001 8.759 1.515a.667.667 0 0 1 .363 1.122l-6.195 6.375a.667.667 0 0 0-.181.563v-.004l1.265 8.798a.667.667 0 0 1-.959.692l.004.002-7.976-3.921a.66.66 0 0 0-.594.001l.004-.002-7.976 3.922a.667.667 0 0 1-.955-.697v.004l1.267-8.798a.665.665 0 0 0-.183-.561l-6.195-6.373a.665.665 0 0 1 .36-1.122l.004-.001 8.759-1.515a.667.667 0 0 0 .474-.343l.002-.004 4.147-7.862z"/><path fill="#d9d9d9" style="fill:var(--color2,#d9d9d9)" d="M50.079 1.118a.667.667 0 0 1 1.177-.004l.002.004 4.148 7.862c.096.18.268.31.472.346l.004.001 8.759 1.515a.667.667 0 0 1 .363 1.122l-6.195 6.375a.667.667 0 0 0-.181.563v-.004l1.265 8.798a.667.667 0 0 1-.959.692l.004.002-7.976-3.921a.66.66 0 0 0-.594.001l.004-.002-7.976 3.922a.667.667 0 0 1-.955-.697v.004l1.267-8.798a.665.665 0 0 0-.183-.561l-6.195-6.373a.665.665 0 0 1 .36-1.122l.004-.001 8.759-1.515a.667.667 0 0 0 .474-.343l.002-.004 4.147-7.862zM84.747 1.118a.667.667 0 0 1 1.177-.004l.002.004 4.148 7.862c.096.18.268.31.472.346l.004.001 8.759 1.515a.667.667 0 0 1 .363 1.122l-6.195 6.375a.667.667 0 0 0-.181.563v-.004l1.264 8.798a.667.667 0 0 1-.957.692l.004.002-7.976-3.921a.66.66 0 0 0-.594.001l.004-.002-7.976 3.922a.667.667 0 0 1-.953-.697v.004l1.264-8.798a.665.665 0 0 0-.181-.56L71 11.965a.665.665 0 0 1 .36-1.122l.004-.001 8.759-1.515a.667.667 0 0 0 .474-.343l.002-.004 4.147-7.862zM119.416 1.118a.667.667 0 0 1 1.177-.004l.002.004 4.148 7.862c.096.18.268.31.472.346l.004.001 8.759 1.515a.668.668 0 0 1 .364 1.122l-6.195 6.375a.667.667 0 0 0-.181.563v-.004l1.264 8.798a.667.667 0 0 1-.957.692l.004.002-7.976-3.921a.66.66 0 0 0-.594.001l.004-.002-7.976 3.922a.667.667 0 0 1-.953-.697v.004l1.264-8.798a.665.665 0 0 0-.181-.56l-6.195-6.374a.665.665 0 0 1 .36-1.122l.004-.001 8.759-1.515a.667.667 0 0 0 .474-.343l.002-.004 4.147-7.862zM154.084 1.118a.667.667 0 0 1 1.177-.004l.002.004 4.148 7.862c.096.181.268.31.472.346l.004.001 8.759 1.515a.668.668 0 0 1 .364 1.122l-6.195 6.375a.667.667 0 0 0-.181.563v-.004l1.265 8.798a.667.667 0 0 1-.959.692l.004.002-7.976-3.921a.665.665 0 0 0-.594.002l.004-.002-7.976 3.922a.667.667 0 0 1-.955-.697v.004l1.265-8.798a.665.665 0 0 0-.181-.56l-6.195-6.374a.665.665 0 0 1 .36-1.122l.004-.001 8.759-1.515a.667.667 0 0 0 .474-.343l.002-.004 4.148-7.862z"/></symbol></defs></svg>