<svg xmlns="http://www.w3.org/2000/svg" aria-hidden="true" style="position:absolute;width:0;height:0;overflow:hidden">
  <defs>
    
    <symbol id="icon-facebook-1" viewBox="0 0 32 32">
      <path  d="M21.329 5.313h2.921V.225C23.746.156 22.013 0 19.994 0c-4.212 0-7.097 2.649-7.097 7.519V12H8.249v5.688h4.648V32h5.699V17.689h4.46l.708-5.688h-5.169V8.082c.001-1.644.444-2.769 2.735-2.769z" style="fill:var(--color1, #f4f4fd)"/>
    </symbol>
    <symbol id="icon-instagram-2" viewBox="0 0 32 32">
      <path  d="M31.969 9.408c-.075-1.7-.35-2.869-.744-3.882a7.793 7.793 0 0 0-1.851-2.838A7.867 7.867 0 0 0 26.542.844C25.523.45 24.361.175 22.66.1 20.947.019 20.403 0 16.059 0s-4.888.019-6.595.094c-1.7.075-2.869.35-3.882.744a7.803 7.803 0 0 0-2.838 1.85A7.867 7.867 0 0 0 .9 5.52C.506 6.539.231 7.702.156 9.402c-.081 1.713-.1 2.257-.1 6.601s.019 4.888.094 6.595c.075 1.7.35 2.869.744 3.882a7.895 7.895 0 0 0 1.85 2.838 7.867 7.867 0 0 0 2.832 1.844c1.019.394 2.182.669 3.882.744 1.706.075 2.25.094 6.595.094s4.888-.019 6.595-.094c1.7-.075 2.869-.35 3.882-.744a8.181 8.181 0 0 0 4.682-4.682c.394-1.019.669-2.182.744-3.882.075-1.707.094-2.25.094-6.595s-.006-4.888-.081-6.595zm-2.882 13.065c-.069 1.563-.331 2.407-.55 2.969a5.31 5.31 0 0 1-3.038 3.038c-.563.219-1.413.481-2.969.55-1.688.075-2.194.094-6.464.094s-4.782-.019-6.464-.094c-1.563-.069-2.407-.331-2.969-.55a4.926 4.926 0 0 1-1.838-1.194 4.974 4.974 0 0 1-1.194-1.838c-.219-.563-.481-1.413-.55-2.969-.075-1.688-.094-2.194-.094-6.464s.019-4.782.094-6.464c.069-1.563.331-2.407.55-2.969a4.868 4.868 0 0 1 1.2-1.838A4.974 4.974 0 0 1 6.639 3.55c.563-.219 1.413-.481 2.969-.55 1.688-.075 2.194-.094 6.464-.094 4.276 0 4.782.019 6.464.094 1.563.069 2.407.331 2.969.55a4.914 4.914 0 0 1 1.838 1.194 4.974 4.974 0 0 1 1.194 1.838c.219.563.481 1.413.55 2.969.075 1.688.094 2.194.094 6.464s-.019 4.77-.094 6.458z" style="fill:var(--color1, #f4f4fd)"/>
      <path  d="M16.059 7.783c-4.538 0-8.22 3.682-8.22 8.22s3.682 8.22 8.22 8.22c4.539 0 8.22-3.682 8.22-8.22s-3.682-8.22-8.22-8.22zm0 13.552a5.333 5.333 0 0 1 0-10.664 5.332 5.332 0 0 1 0 10.664zM26.524 7.458a1.919 1.919 0 1 1-3.838 0 1.919 1.919 0 0 1 3.838 0z" style="fill:var(--color1, #f4f4fd)"/>
    </symbol>
    <symbol id="icon-linkedin-1" viewBox="0 0 32 32">
      <path  d="M31.992 32v-.001H32V20.263c0-5.741-1.236-10.164-7.948-10.164-3.227 0-5.392 1.771-6.276 3.449h-.093v-2.913h-6.364v21.364h6.627V21.42c0-2.785.528-5.479 3.977-5.479 3.399 0 3.449 3.179 3.449 5.657v10.401h6.62zM.528 10.636h6.635V32H.528V10.636zM3.843 0C1.722 0 0 1.721 0 3.843s1.721 3.879 3.843 3.879c2.121 0 3.843-1.757 3.843-3.879A3.846 3.846 0 0 0 3.843 0z" style="fill:var(--color1, #f4f4fd)"/>
    </symbol>
    <symbol id="icon-twitter-1" viewBox="0 0 32 32">
      <path  d="M32 6.078c-1.19.522-2.458.868-3.78 1.036a6.523 6.523 0 0 0 2.886-3.626 13.11 13.11 0 0 1-4.16 1.588A6.574 6.574 0 0 0 22.154 3c-3.632 0-6.556 2.948-6.556 6.562 0 .52.044 1.02.152 1.496-5.454-.266-10.28-2.88-13.522-6.862a6.605 6.605 0 0 0-.898 3.316 6.57 6.57 0 0 0 2.914 5.452 6.479 6.479 0 0 1-2.964-.808v.072c0 3.188 2.274 5.836 5.256 6.446a6.548 6.548 0 0 1-1.72.216 5.8 5.8 0 0 1-1.242-.112c.85 2.598 3.262 4.508 6.13 4.57a13.182 13.182 0 0 1-8.134 2.798c-.538 0-1.054-.024-1.57-.09A18.469 18.469 0 0 0 10.064 29c12.072 0 18.672-10 18.672-18.668 0-.29-.01-.57-.024-.848A13.087 13.087 0 0 0 32 6.078z" style="fill:var(--color1, #f4f4fd)"/>
    </symbol>
  
  <symbol id="icon-arrow-up" viewBox="0 0 48 48">
<path d="M44.22 22.62c0.49 0.67 0.78 1.49 0.78 2.38 0 2.21-1.79 4-4 4h-4c-1.1 0-2 0.9-2 2v12c0 2.21-1.79 4-4 4l-14-0c-2.21 0-4-1.79-4-4l0-12c0-1.1-0.9-2-2-2l-4-0c-2.21 0-4-1.79-4-4 0-0.89 0.29-1.71 0.78-2.38l16.67-20.15c1.96-1.96 5.14-1.96 7.1 0l16.67 20.15z"></path>
</symbol>
 <symbol id="icon-x" viewBox="0 0 32 32">
 <path d="M32 3.224l-3.224-3.224-12.776 12.776-12.776-12.776-3.224 3.224 12.776 12.776-12.776 12.776 3.224 3.224 12.776-12.776 12.776 12.776 3.224-3.224-12.776-12.776 12.776-12.776z"></path>
 </symbol>
 
<symbol id="icon-angle-small-left" viewBox="0 0 34 32">
<path d="M18.666 16.947c0.125-0.124 0.224-0.272 0.292-0.434s0.103-0.337 0.103-0.513-0.035-0.35-0.103-0.513c-0.068-0.162-0.167-0.31-0.292-0.434l-6.12-6.107c-0.125-0.124-0.224-0.271-0.292-0.434s-0.103-0.337-0.103-0.513c0-0.176 0.035-0.35 0.103-0.513s0.167-0.31 0.292-0.434c0.25-0.248 0.588-0.388 0.94-0.388s0.69 0.139 0.94 0.388l6.12 6.12c0.749 0.75 1.17 1.767 1.17 2.827s-0.421 2.077-1.17 2.827l-6.12 6.12c-0.248 0.246-0.584 0.385-0.933 0.387-0.175 0.001-0.349-0.033-0.512-0.099s-0.31-0.164-0.435-0.288c-0.125-0.124-0.224-0.271-0.292-0.434s-0.103-0.337-0.103-0.513 0.035-0.35 0.103-0.513c0.068-0.162 0.167-0.31 0.292-0.434l6.12-6.107z"></path>
</symbol>
<symbol id="icon-angle-small-left-1" viewBox="0 0 34 32">
<path   d="M14.934 16.947c-0.125-0.124-0.224-0.271-0.292-0.434s-0.103-0.337-0.103-0.513 0.035-0.35 0.103-0.513c0.068-0.162 0.167-0.31 0.292-0.434l6.12-6.107c0.125-0.124 0.224-0.271 0.292-0.434s0.103-0.337 0.103-0.513c0-0.176-0.035-0.35-0.103-0.513s-0.167-0.31-0.292-0.434c-0.25-0.248-0.588-0.388-0.94-0.388s-0.69 0.139-0.94 0.388l-6.12 6.12c-0.749 0.75-1.17 1.767-1.17 2.827s0.421 2.077 1.17 2.827l6.12 6.12c0.248 0.246 0.584 0.385 0.933 0.387 0.176 0.001 0.349-0.033 0.512-0.099s0.31-0.164 0.435-0.288c0.125-0.124 0.224-0.271 0.292-0.434s0.103-0.337 0.103-0.513-0.035-0.35-0.103-0.513c-0.068-0.162-0.167-0.31-0.292-0.434l-6.12-6.107z"></path>
</symbol>
<symbol  id="icon-right" viewBox="0 0 124 96">
<path d="M81.6 50.839c0.375-0.372 0.673-0.814 0.876-1.302s0.308-1.010 0.308-1.538-0.104-1.051-0.308-1.538c-0.203-0.488-0.5-0.93-0.876-1.302l-18.36-18.32c-0.375-0.372-0.672-0.814-0.876-1.302s-0.308-1.010-0.308-1.538 0.105-1.051 0.308-1.538c0.203-0.487 0.501-0.93 0.876-1.302 0.75-0.745 1.764-1.163 2.82-1.163s2.071 0.418 2.82 1.163l18.36 18.36c2.247 2.25 3.51 5.3 3.51 8.48s-1.262 6.23-3.51 8.48l-18.36 18.36c-0.745 0.739-1.75 1.156-2.8 1.16-0.526 0.003-1.048-0.098-1.536-0.297s-0.93-0.492-1.304-0.863c-0.375-0.372-0.672-0.814-0.876-1.302s-0.308-1.010-0.308-1.538c0-0.528 0.105-1.051 0.308-1.538s0.501-0.93 0.876-1.302l18.36-18.32z"></path>
<path d="M53.6 50.839c0.375-0.372 0.673-0.814 0.876-1.302s0.308-1.010 0.308-1.538-0.104-1.051-0.308-1.538c-0.203-0.488-0.5-0.93-0.876-1.302l-18.36-18.32c-0.375-0.372-0.672-0.814-0.876-1.302s-0.308-1.010-0.308-1.538c0-0.528 0.105-1.051 0.308-1.538s0.501-0.93 0.876-1.302c0.749-0.745 1.763-1.163 2.82-1.163s2.071 0.418 2.82 1.163l18.36 18.36c2.247 2.25 3.51 5.3 3.51 8.48s-1.262 6.23-3.51 8.48l-18.36 18.36c-0.745 0.739-1.751 1.156-2.8 1.16-0.526 0.003-1.048-0.098-1.536-0.297s-0.931-0.492-1.304-0.863c-0.375-0.372-0.672-0.814-0.876-1.302s-0.308-1.010-0.308-1.538c0-0.528 0.105-1.051 0.308-1.538s0.501-0.93 0.876-1.302l18.36-18.32z"></path>
</symbol>
<symbol id="icon-left"  viewBox="0 0 124 96">
<path d="M42.4 50.839c-0.375-0.372-0.673-0.814-0.876-1.302s-0.308-1.010-0.308-1.538 0.104-1.051 0.308-1.538c0.203-0.488 0.5-0.93 0.876-1.302l18.36-18.32c0.375-0.372 0.672-0.814 0.876-1.302s0.308-1.010 0.308-1.538-0.105-1.051-0.308-1.538c-0.203-0.487-0.501-0.93-0.876-1.302-0.75-0.745-1.764-1.163-2.82-1.163s-2.071 0.418-2.82 1.163l-18.36 18.36c-2.247 2.25-3.509 5.3-3.509 8.48s1.262 6.23 3.509 8.48l18.36 18.36c0.745 0.739 1.75 1.156 2.8 1.16 0.526 0.003 1.048-0.098 1.536-0.297s0.93-0.492 1.304-0.863c0.375-0.372 0.672-0.814 0.876-1.302s0.308-1.010 0.308-1.538c0-0.528-0.105-1.051-0.308-1.538s-0.501-0.93-0.876-1.302l-18.36-18.32z"></path>
<path d="M70.4 50.839c-0.375-0.372-0.673-0.814-0.876-1.302s-0.308-1.010-0.308-1.538 0.104-1.051 0.308-1.538c0.203-0.488 0.5-0.93 0.876-1.302l18.36-18.32c0.375-0.372 0.672-0.814 0.876-1.302s0.308-1.010 0.308-1.538-0.105-1.051-0.308-1.538c-0.203-0.487-0.501-0.93-0.876-1.302-0.75-0.745-1.764-1.163-2.82-1.163s-2.071 0.418-2.82 1.163l-18.36 18.36c-2.247 2.25-3.51 5.3-3.51 8.48s1.262 6.23 3.51 8.48l18.36 18.36c0.745 0.739 1.75 1.156 2.8 1.16 0.526 0.003 1.048-0.098 1.536-0.297s0.93-0.492 1.304-0.863c0.375-0.372 0.672-0.814 0.876-1.302s0.308-1.010 0.308-1.538c0-0.528-0.105-1.051-0.308-1.538s-0.501-0.93-0.876-1.302l-18.36-18.32z"></path>
</symbol>

<symbol id="icon-Star-1" viewBox="0 0 24 24">
      <path d="M10.37 2.446c.513-1.579 2.748-1.579 3.261 0l1.449 4.459a1.715 1.715 0 0 0 1.63 1.185h4.688c1.661 0 2.351 2.125 1.008 3.101l-3.793 2.756a1.715 1.715 0 0 0-.623 1.917l1.449 4.459c.513 1.579-1.294 2.893-2.638 1.917l-3.793-2.756a1.716 1.716 0 0 0-2.015 0L7.2 22.24c-1.344.976-3.151-.337-2.638-1.917l1.449-4.459a1.716 1.716 0 0 0-.623-1.917l-3.793-2.755C.251 10.216.942 8.091 2.603 8.091h4.688c.743 0 1.401-.478 1.63-1.185l1.449-4.459z"  />
    </symbol>
  </defs>
</svg>
