<svg aria-hidden="true" style="position: absolute; width: 24; height: 24; overflow: hidden;" version="1.1" xmlns="http://www.w3.org/2000/svg" xmlns:xlink="http://www.w3.org/1999/xlink">
<defs>
<symbol id="icon-star" viewBox="0 0 32 32">
<path d="M15.41 1.118c0.25-0.474 0.929-0.474 1.179 0l4.148 7.862c0.096 0.183 0.272 0.311 0.476 0.346l8.759 1.515c0.528 0.091 0.738 0.737 0.364 1.122l-6.195 6.374c-0.144 0.148-0.211 0.355-0.182 0.559l1.265 8.798c0.076 0.531-0.473 0.93-0.954 0.693l-7.977-3.922c-0.185-0.091-0.403-0.091-0.588 0l-7.977 3.922c-0.481 0.237-1.030-0.163-0.954-0.693l1.265-8.798c0.029-0.205-0.038-0.411-0.182-0.559l-6.195-6.374c-0.374-0.384-0.164-1.030 0.364-1.122l8.758-1.515c0.204-0.035 0.38-0.163 0.476-0.346l4.148-7.862z"></path>
</symbol>
</defs>
</svg>


<svg aria-hidden="true" style="position: absolute; width: 0; height: 0; overflow: hidden;" version="1.1" xmlns="http://www.w3.org/2000/svg" xmlns:xlink="http://www.w3.org/1999/xlink">
<defs>
<symbol id="icon-reviews-1" viewBox="0 0 171 32">
<path fill="#eea10c" style="fill: var(--color1, #eea10c)" d="M15.411 1.118c0.114-0.213 0.335-0.355 0.589-0.355s0.475 0.142 0.588 0.351l0.002 0.004 4.148 7.862c0.096 0.18 0.268 0.31 0.472 0.346l0.004 0.001 8.759 1.515c0.316 0.056 0.552 0.329 0.552 0.657 0 0.181-0.072 0.345-0.189 0.465l0-0-6.195 6.375c-0.116 0.12-0.188 0.284-0.188 0.464 0 0.034 0.003 0.067 0.007 0.099l-0-0.004 1.265 8.798c0.004 0.029 0.007 0.062 0.007 0.095 0 0.368-0.299 0.667-0.667 0.667-0.107 0-0.209-0.025-0.299-0.070l0.004 0.002-7.976-3.921c-0.086-0.043-0.187-0.069-0.295-0.069s-0.209 0.025-0.299 0.070l0.004-0.002-7.976 3.922c-0.086 0.043-0.187 0.069-0.295 0.069-0.368 0-0.667-0.299-0.667-0.667 0-0.034 0.003-0.067 0.007-0.099l-0 0.004 1.267-8.798c0.004-0.028 0.007-0.061 0.007-0.095 0-0.181-0.072-0.345-0.19-0.466l-6.195-6.373c-0.117-0.12-0.19-0.284-0.19-0.466 0-0.328 0.237-0.601 0.55-0.656l0.004-0.001 8.759-1.515c0.208-0.037 0.38-0.166 0.474-0.343l0.002-0.004 4.147-7.862z"></path>
<path fill="#d9d9d9" style="fill: var(--color2, #d9d9d9)" d="M50.079 1.118c0.114-0.213 0.335-0.355 0.589-0.355s0.475 0.142 0.588 0.351l0.002 0.004 4.148 7.862c0.096 0.18 0.268 0.31 0.472 0.346l0.004 0.001 8.759 1.515c0.316 0.056 0.552 0.329 0.552 0.657 0 0.181-0.072 0.345-0.189 0.465l0-0-6.195 6.375c-0.116 0.12-0.188 0.284-0.188 0.464 0 0.034 0.002 0.067 0.007 0.099l-0-0.004 1.265 8.798c0.004 0.029 0.007 0.062 0.007 0.095 0 0.368-0.298 0.667-0.667 0.667-0.107 0-0.209-0.025-0.299-0.070l0.004 0.002-7.976-3.921c-0.086-0.043-0.187-0.069-0.295-0.069s-0.209 0.025-0.299 0.070l0.004-0.002-7.976 3.922c-0.086 0.043-0.187 0.069-0.295 0.069-0.368 0-0.667-0.299-0.667-0.667 0-0.034 0.002-0.067 0.007-0.099l-0 0.004 1.267-8.798c0.004-0.028 0.007-0.061 0.007-0.095 0-0.181-0.072-0.345-0.19-0.466l-6.195-6.373c-0.117-0.12-0.19-0.284-0.19-0.466 0-0.328 0.237-0.601 0.55-0.656l0.004-0.001 8.759-1.515c0.208-0.037 0.38-0.166 0.474-0.343l0.002-0.004 4.147-7.862z"></path>
<path fill="#d9d9d9" style="fill: var(--color2, #d9d9d9)" d="M84.747 1.118c0.114-0.213 0.335-0.355 0.589-0.355s0.475 0.142 0.588 0.351l0.002 0.004 4.148 7.862c0.096 0.18 0.268 0.31 0.472 0.346l0.004 0.001 8.759 1.515c0.316 0.056 0.552 0.329 0.552 0.657 0 0.181-0.072 0.345-0.189 0.465l0-0-6.195 6.375c-0.116 0.12-0.188 0.284-0.188 0.464 0 0.034 0.002 0.067 0.007 0.099l-0-0.004 1.264 8.798c0.004 0.028 0.007 0.061 0.007 0.095 0 0.368-0.299 0.667-0.667 0.667-0.107 0-0.208-0.025-0.297-0.070l0.004 0.002-7.976-3.921c-0.086-0.043-0.187-0.069-0.295-0.069s-0.209 0.025-0.299 0.070l0.004-0.002-7.976 3.922c-0.086 0.043-0.187 0.068-0.293 0.068-0.368 0-0.667-0.299-0.667-0.667 0-0.033 0.002-0.066 0.007-0.098l-0 0.004 1.264-8.798c0.004-0.029 0.007-0.062 0.007-0.096 0-0.181-0.072-0.344-0.188-0.464l0 0-6.195-6.374c-0.117-0.12-0.19-0.284-0.19-0.466 0-0.328 0.237-0.601 0.55-0.656l0.004-0.001 8.759-1.515c0.208-0.037 0.38-0.166 0.474-0.343l0.002-0.004 4.147-7.862z"></path>
<path fill="#d9d9d9" style="fill: var(--color2, #d9d9d9)" d="M119.416 1.118c0.114-0.213 0.335-0.355 0.589-0.355s0.475 0.142 0.588 0.351l0.002 0.004 4.148 7.862c0.096 0.18 0.268 0.31 0.472 0.346l0.004 0.001 8.759 1.515c0.316 0.056 0.553 0.329 0.553 0.657 0 0.181-0.072 0.345-0.189 0.465l0-0-6.195 6.375c-0.116 0.12-0.188 0.284-0.188 0.464 0 0.034 0.002 0.067 0.007 0.099l-0-0.004 1.264 8.798c0.004 0.028 0.007 0.061 0.007 0.095 0 0.368-0.298 0.667-0.667 0.667-0.107 0-0.208-0.025-0.297-0.070l0.004 0.002-7.976-3.921c-0.086-0.043-0.187-0.069-0.295-0.069s-0.209 0.025-0.299 0.070l0.004-0.002-7.976 3.922c-0.086 0.043-0.187 0.068-0.293 0.068-0.368 0-0.667-0.299-0.667-0.667 0-0.033 0.002-0.066 0.007-0.098l-0 0.004 1.264-8.798c0.004-0.029 0.007-0.062 0.007-0.096 0-0.181-0.072-0.344-0.188-0.464l0 0-6.195-6.374c-0.117-0.12-0.19-0.284-0.19-0.466 0-0.328 0.237-0.601 0.55-0.656l0.004-0.001 8.759-1.515c0.208-0.037 0.38-0.166 0.474-0.343l0.002-0.004 4.147-7.862z"></path>
<path fill="#d9d9d9" style="fill: var(--color2, #d9d9d9)" d="M154.084 1.118c0.114-0.213 0.335-0.355 0.589-0.355s0.475 0.142 0.588 0.351l0.002 0.004 4.148 7.862c0.096 0.181 0.268 0.31 0.472 0.346l0.004 0.001 8.759 1.515c0.316 0.056 0.553 0.329 0.553 0.657 0 0.181-0.072 0.345-0.189 0.465l0-0-6.195 6.375c-0.116 0.12-0.188 0.284-0.188 0.464 0 0.034 0.002 0.067 0.007 0.099l-0-0.004 1.265 8.798c0.004 0.029 0.007 0.062 0.007 0.095 0 0.368-0.298 0.667-0.667 0.667-0.107 0-0.209-0.025-0.299-0.070l0.004 0.002-7.976-3.921c-0.086-0.043-0.187-0.068-0.295-0.068s-0.209 0.025-0.299 0.070l0.004-0.002-7.976 3.922c-0.086 0.043-0.187 0.069-0.295 0.069-0.368 0-0.667-0.299-0.667-0.667 0-0.034 0.002-0.067 0.007-0.099l-0 0.004 1.265-8.798c0.004-0.029 0.007-0.062 0.007-0.096 0-0.181-0.072-0.344-0.188-0.464l0 0-6.195-6.374c-0.117-0.12-0.19-0.284-0.19-0.466 0-0.328 0.237-0.601 0.55-0.656l0.004-0.001 8.759-1.515c0.208-0.037 0.38-0.166 0.474-0.343l0.002-0.004 4.148-7.862z"></path>
</symbol>
</defs>
</svg>